<mxfile host="app.diagrams.net" modified="2024-05-06T14:45:56.153Z" agent="Mozilla/5.0 (Windows NT 10.0; Win64; x64) AppleWebKit/537.36 (KHTML, like Gecko) Chrome/124.0.0.0 Safari/537.36" etag="LhWZPkq07Ng0BL41XpB2" version="24.3.1" type="device">
  <diagram name="Page-1" id="890_jNCDA7X4Bcmrccux">
    <mxGraphModel dx="926" dy="484" grid="1" gridSize="10" guides="1" tooltips="1" connect="1" arrows="1" fold="1" page="1" pageScale="1" pageWidth="1200" pageHeight="800" background="#FFFFFF" math="0" shadow="0">
      <root>
        <mxCell id="0" />
        <mxCell id="1" parent="0" />
        <mxCell id="zv86cnZ0isYPRK_yYeSK-1" value="User" style="rounded=1;arcSize=10;whiteSpace=wrap;html=1;align=center;fontFamily=cascadia code;fontSize=14;" parent="1" vertex="1">
          <mxGeometry x="258" y="140" width="120" height="40" as="geometry" />
        </mxCell>
        <mxCell id="zv86cnZ0isYPRK_yYeSK-5" value="Id" style="ellipse;whiteSpace=wrap;html=1;align=center;fontStyle=4;fontSize=14;" parent="1" vertex="1">
          <mxGeometry x="80" y="240" width="100" height="40" as="geometry" />
        </mxCell>
        <mxCell id="zv86cnZ0isYPRK_yYeSK-10" value="" style="endArrow=none;html=1;rounded=0;entryX=0;entryY=1;entryDx=0;entryDy=0;fontFamily=cascadia code;fontSize=14;exitX=1;exitY=0.5;exitDx=0;exitDy=0;" parent="1" source="zv86cnZ0isYPRK_yYeSK-5" target="zv86cnZ0isYPRK_yYeSK-1" edge="1">
          <mxGeometry relative="1" as="geometry">
            <mxPoint x="228" y="210" as="sourcePoint" />
            <mxPoint x="608" y="330" as="targetPoint" />
            <Array as="points" />
          </mxGeometry>
        </mxCell>
        <mxCell id="zv86cnZ0isYPRK_yYeSK-11" value="name" style="ellipse;whiteSpace=wrap;html=1;align=center;fontFamily=cascadia code;fontSize=14;" parent="1" vertex="1">
          <mxGeometry x="81" y="190" width="100" height="40" as="geometry" />
        </mxCell>
        <mxCell id="zv86cnZ0isYPRK_yYeSK-20" value="roles" style="ellipse;shape=doubleEllipse;margin=3;whiteSpace=wrap;html=1;align=center;fontFamily=cascadia code;fontSize=14;" parent="1" vertex="1">
          <mxGeometry x="268" y="40" width="100" height="40" as="geometry" />
        </mxCell>
        <mxCell id="fLhaeGa8DQ7M7dZYa2ZT-3" value="password" style="ellipse;whiteSpace=wrap;html=1;align=center;fontFamily=cascadia code;fontSize=14;" parent="1" vertex="1">
          <mxGeometry x="80" y="90" width="100" height="40" as="geometry" />
        </mxCell>
        <mxCell id="fLhaeGa8DQ7M7dZYa2ZT-6" value="" style="endArrow=none;html=1;rounded=0;entryX=0;entryY=0.5;entryDx=0;entryDy=0;exitX=1;exitY=0.5;exitDx=0;exitDy=0;fontFamily=cascadia code;fontSize=14;" parent="1" source="fLhaeGa8DQ7M7dZYa2ZT-4" target="zv86cnZ0isYPRK_yYeSK-1" edge="1">
          <mxGeometry relative="1" as="geometry">
            <mxPoint x="213" y="114" as="sourcePoint" />
            <mxPoint x="268" y="160" as="targetPoint" />
            <Array as="points" />
          </mxGeometry>
        </mxCell>
        <mxCell id="fLhaeGa8DQ7M7dZYa2ZT-7" value="" style="endArrow=none;html=1;rounded=0;entryX=1;entryY=0.5;entryDx=0;entryDy=0;exitX=0;exitY=0.25;exitDx=0;exitDy=0;fontFamily=cascadia code;fontSize=14;" parent="1" source="zv86cnZ0isYPRK_yYeSK-1" target="fLhaeGa8DQ7M7dZYa2ZT-3" edge="1">
          <mxGeometry relative="1" as="geometry">
            <mxPoint x="223" y="124" as="sourcePoint" />
            <mxPoint x="278" y="170" as="targetPoint" />
            <Array as="points" />
          </mxGeometry>
        </mxCell>
        <mxCell id="fLhaeGa8DQ7M7dZYa2ZT-8" value="avatarUrl" style="ellipse;whiteSpace=wrap;html=1;align=center;fontFamily=cascadia code;fontSize=14;" parent="1" vertex="1">
          <mxGeometry x="80" y="40" width="100" height="40" as="geometry" />
        </mxCell>
        <mxCell id="fLhaeGa8DQ7M7dZYa2ZT-9" value="" style="endArrow=none;html=1;rounded=0;entryX=1;entryY=0.5;entryDx=0;entryDy=0;exitX=0;exitY=0;exitDx=0;exitDy=0;fontFamily=cascadia code;fontSize=14;" parent="1" source="zv86cnZ0isYPRK_yYeSK-1" target="fLhaeGa8DQ7M7dZYa2ZT-8" edge="1">
          <mxGeometry relative="1" as="geometry">
            <mxPoint x="328" y="160" as="sourcePoint" />
            <mxPoint x="383" y="114" as="targetPoint" />
            <Array as="points" />
          </mxGeometry>
        </mxCell>
        <mxCell id="fLhaeGa8DQ7M7dZYa2ZT-14" value="createdAt" style="ellipse;whiteSpace=wrap;html=1;align=center;fontFamily=cascadia code;fontSize=14;" parent="1" vertex="1">
          <mxGeometry x="458" y="240" width="100" height="40" as="geometry" />
        </mxCell>
        <mxCell id="fLhaeGa8DQ7M7dZYa2ZT-15" value="updatedAt" style="ellipse;whiteSpace=wrap;html=1;align=center;fontFamily=cascadia code;fontSize=14;" parent="1" vertex="1">
          <mxGeometry x="458" y="190" width="100" height="40" as="geometry" />
        </mxCell>
        <mxCell id="fLhaeGa8DQ7M7dZYa2ZT-21" value="" style="endArrow=none;html=1;rounded=0;exitX=0.5;exitY=1;exitDx=0;exitDy=0;entryX=0;entryY=0.5;entryDx=0;entryDy=0;" parent="1" source="zv86cnZ0isYPRK_yYeSK-1" target="KDxauUP3_yt1p3gHTJt_-1" edge="1">
          <mxGeometry relative="1" as="geometry">
            <mxPoint x="228" y="312" as="sourcePoint" />
            <mxPoint x="280" y="350" as="targetPoint" />
          </mxGeometry>
        </mxCell>
        <mxCell id="fLhaeGa8DQ7M7dZYa2ZT-22" value="N" style="resizable=0;html=1;whiteSpace=wrap;align=right;verticalAlign=bottom;" parent="fLhaeGa8DQ7M7dZYa2ZT-21" connectable="0" vertex="1">
          <mxGeometry x="1" relative="1" as="geometry">
            <mxPoint x="-4" as="offset" />
          </mxGeometry>
        </mxCell>
        <mxCell id="fLhaeGa8DQ7M7dZYa2ZT-23" value="" style="endArrow=none;html=1;rounded=0;entryX=1;entryY=0.5;entryDx=0;entryDy=0;exitX=0.5;exitY=1;exitDx=0;exitDy=0;" parent="1" source="zv86cnZ0isYPRK_yYeSK-1" target="KDxauUP3_yt1p3gHTJt_-1" edge="1">
          <mxGeometry relative="1" as="geometry">
            <mxPoint x="428" y="172" as="sourcePoint" />
            <mxPoint x="360" y="350" as="targetPoint" />
          </mxGeometry>
        </mxCell>
        <mxCell id="fLhaeGa8DQ7M7dZYa2ZT-24" value="N" style="resizable=0;html=1;whiteSpace=wrap;align=right;verticalAlign=bottom;" parent="fLhaeGa8DQ7M7dZYa2ZT-23" connectable="0" vertex="1">
          <mxGeometry x="1" relative="1" as="geometry">
            <mxPoint x="14" as="offset" />
          </mxGeometry>
        </mxCell>
        <mxCell id="fLhaeGa8DQ7M7dZYa2ZT-25" value="Video" style="rounded=1;arcSize=10;whiteSpace=wrap;html=1;align=center;fontFamily=cascadia code;fontSize=14;" parent="1" vertex="1">
          <mxGeometry x="262" y="650" width="120" height="40" as="geometry" />
        </mxCell>
        <mxCell id="fLhaeGa8DQ7M7dZYa2ZT-26" value="Id" style="ellipse;whiteSpace=wrap;html=1;align=center;fontStyle=4;fontSize=14;" parent="1" vertex="1">
          <mxGeometry x="80" y="570" width="100" height="40" as="geometry" />
        </mxCell>
        <mxCell id="fLhaeGa8DQ7M7dZYa2ZT-27" value="" style="endArrow=none;html=1;rounded=0;exitX=1;exitY=1;exitDx=0;exitDy=0;fontFamily=cascadia code;fontSize=14;entryX=0;entryY=0;entryDx=0;entryDy=0;" parent="1" source="fLhaeGa8DQ7M7dZYa2ZT-26" target="fLhaeGa8DQ7M7dZYa2ZT-25" edge="1">
          <mxGeometry relative="1" as="geometry">
            <mxPoint x="412" y="834.72" as="sourcePoint" />
            <mxPoint x="212" y="654.72" as="targetPoint" />
            <Array as="points" />
          </mxGeometry>
        </mxCell>
        <mxCell id="fLhaeGa8DQ7M7dZYa2ZT-28" value="title" style="ellipse;whiteSpace=wrap;html=1;align=center;fontFamily=cascadia code;fontSize=14;" parent="1" vertex="1">
          <mxGeometry x="80" y="620" width="100" height="40" as="geometry" />
        </mxCell>
        <mxCell id="fLhaeGa8DQ7M7dZYa2ZT-35" value="" style="endArrow=none;html=1;rounded=0;entryX=0.5;entryY=0;entryDx=0;entryDy=0;exitX=0.5;exitY=1;exitDx=0;exitDy=0;fontFamily=cascadia code;fontSize=14;" parent="1" source="fLhaeGa8DQ7M7dZYa2ZT-25" target="KDxauUP3_yt1p3gHTJt_-11" edge="1">
          <mxGeometry relative="1" as="geometry">
            <mxPoint x="187" y="628.72" as="sourcePoint" />
            <mxPoint x="348.3000000000002" y="737.0400000000002" as="targetPoint" />
            <Array as="points" />
          </mxGeometry>
        </mxCell>
        <mxCell id="fLhaeGa8DQ7M7dZYa2ZT-42" value="createdAt" style="ellipse;whiteSpace=wrap;html=1;align=center;fontFamily=cascadia code;fontSize=14;" parent="1" vertex="1">
          <mxGeometry x="460" y="730" width="100" height="40" as="geometry" />
        </mxCell>
        <mxCell id="fLhaeGa8DQ7M7dZYa2ZT-43" value="updatedAt" style="ellipse;whiteSpace=wrap;html=1;align=center;fontFamily=cascadia code;fontSize=14;" parent="1" vertex="1">
          <mxGeometry x="461" y="680" width="100" height="40" as="geometry" />
        </mxCell>
        <mxCell id="fLhaeGa8DQ7M7dZYa2ZT-44" value="" style="endArrow=none;html=1;rounded=0;entryX=0;entryY=0.5;entryDx=0;entryDy=0;exitX=1;exitY=0.75;exitDx=0;exitDy=0;fontFamily=cascadia code;fontSize=14;" parent="1" source="fLhaeGa8DQ7M7dZYa2ZT-25" target="fLhaeGa8DQ7M7dZYa2ZT-42" edge="1">
          <mxGeometry relative="1" as="geometry">
            <mxPoint x="352" y="684.72" as="sourcePoint" />
            <mxPoint x="452" y="684.72" as="targetPoint" />
            <Array as="points" />
          </mxGeometry>
        </mxCell>
        <mxCell id="fLhaeGa8DQ7M7dZYa2ZT-52" value="" style="endArrow=none;html=1;rounded=0;entryX=0;entryY=0.25;entryDx=0;entryDy=0;exitX=1;exitY=0.5;exitDx=0;exitDy=0;fontFamily=cascadia code;fontSize=14;" parent="1" source="fLhaeGa8DQ7M7dZYa2ZT-28" target="fLhaeGa8DQ7M7dZYa2ZT-25" edge="1">
          <mxGeometry relative="1" as="geometry">
            <mxPoint x="177" y="750.72" as="sourcePoint" />
            <mxPoint x="232" y="704.72" as="targetPoint" />
            <Array as="points" />
          </mxGeometry>
        </mxCell>
        <mxCell id="fLhaeGa8DQ7M7dZYa2ZT-54" value="Like" style="rhombus;whiteSpace=wrap;html=1;" parent="1" vertex="1">
          <mxGeometry x="192" y="460" width="80" height="80" as="geometry" />
        </mxCell>
        <mxCell id="fLhaeGa8DQ7M7dZYa2ZT-55" value="Save" style="rhombus;whiteSpace=wrap;html=1;" parent="1" vertex="1">
          <mxGeometry x="282" y="460" width="80" height="80" as="geometry" />
        </mxCell>
        <mxCell id="fLhaeGa8DQ7M7dZYa2ZT-58" value="" style="endArrow=none;html=1;rounded=0;exitX=0.5;exitY=1;exitDx=0;exitDy=0;entryX=0.25;entryY=0;entryDx=0;entryDy=0;" parent="1" source="fLhaeGa8DQ7M7dZYa2ZT-54" target="fLhaeGa8DQ7M7dZYa2ZT-25" edge="1">
          <mxGeometry relative="1" as="geometry">
            <mxPoint x="352" y="462.72" as="sourcePoint" />
            <mxPoint x="322" y="302.72" as="targetPoint" />
          </mxGeometry>
        </mxCell>
        <mxCell id="fLhaeGa8DQ7M7dZYa2ZT-59" value="N" style="resizable=0;html=1;whiteSpace=wrap;align=right;verticalAlign=bottom;" parent="fLhaeGa8DQ7M7dZYa2ZT-58" connectable="0" vertex="1">
          <mxGeometry x="1" relative="1" as="geometry">
            <mxPoint x="-5" y="-9" as="offset" />
          </mxGeometry>
        </mxCell>
        <mxCell id="fLhaeGa8DQ7M7dZYa2ZT-61" value="" style="endArrow=none;html=1;rounded=0;entryX=0;entryY=0.75;entryDx=0;entryDy=0;exitX=1;exitY=0.5;exitDx=0;exitDy=0;fontFamily=cascadia code;fontSize=14;" parent="1" source="zv86cnZ0isYPRK_yYeSK-11" target="zv86cnZ0isYPRK_yYeSK-1" edge="1">
          <mxGeometry relative="1" as="geometry">
            <mxPoint x="288" y="110" as="sourcePoint" />
            <mxPoint x="318" y="230" as="targetPoint" />
            <Array as="points" />
          </mxGeometry>
        </mxCell>
        <mxCell id="fLhaeGa8DQ7M7dZYa2ZT-4" value="email" style="ellipse;whiteSpace=wrap;html=1;align=center;fontStyle=4;fontSize=14;" parent="1" vertex="1">
          <mxGeometry x="80" y="140" width="102" height="40" as="geometry" />
        </mxCell>
        <mxCell id="fLhaeGa8DQ7M7dZYa2ZT-65" value="" style="endArrow=none;html=1;rounded=0;entryX=0.5;entryY=1;entryDx=0;entryDy=0;exitX=0.5;exitY=0;exitDx=0;exitDy=0;fontFamily=cascadia code;fontSize=14;" parent="1" source="zv86cnZ0isYPRK_yYeSK-1" target="zv86cnZ0isYPRK_yYeSK-20" edge="1">
          <mxGeometry relative="1" as="geometry">
            <mxPoint x="358" y="240" as="sourcePoint" />
            <mxPoint x="418" y="140" as="targetPoint" />
            <Array as="points" />
          </mxGeometry>
        </mxCell>
        <mxCell id="fLhaeGa8DQ7M7dZYa2ZT-66" value="" style="endArrow=none;html=1;rounded=0;entryX=0;entryY=0.5;entryDx=0;entryDy=0;fontFamily=cascadia code;fontSize=14;exitX=1;exitY=0.75;exitDx=0;exitDy=0;" parent="1" source="zv86cnZ0isYPRK_yYeSK-1" target="fLhaeGa8DQ7M7dZYa2ZT-15" edge="1">
          <mxGeometry relative="1" as="geometry">
            <mxPoint x="398" y="230" as="sourcePoint" />
            <mxPoint x="468" y="90" as="targetPoint" />
            <Array as="points" />
          </mxGeometry>
        </mxCell>
        <mxCell id="fLhaeGa8DQ7M7dZYa2ZT-67" value="" style="endArrow=none;html=1;rounded=0;entryX=0;entryY=0.5;entryDx=0;entryDy=0;fontFamily=cascadia code;fontSize=14;exitX=1;exitY=1;exitDx=0;exitDy=0;" parent="1" source="zv86cnZ0isYPRK_yYeSK-1" target="fLhaeGa8DQ7M7dZYa2ZT-14" edge="1">
          <mxGeometry relative="1" as="geometry">
            <mxPoint x="408" y="240" as="sourcePoint" />
            <mxPoint x="533" y="114" as="targetPoint" />
            <Array as="points" />
          </mxGeometry>
        </mxCell>
        <mxCell id="fLhaeGa8DQ7M7dZYa2ZT-70" value="" style="endArrow=none;html=1;rounded=0;exitX=0.5;exitY=1;exitDx=0;exitDy=0;entryX=0.5;entryY=0;entryDx=0;entryDy=0;" parent="1" source="fLhaeGa8DQ7M7dZYa2ZT-55" target="fLhaeGa8DQ7M7dZYa2ZT-25" edge="1">
          <mxGeometry relative="1" as="geometry">
            <mxPoint x="302" y="492.72" as="sourcePoint" />
            <mxPoint x="322" y="382.72" as="targetPoint" />
          </mxGeometry>
        </mxCell>
        <mxCell id="fLhaeGa8DQ7M7dZYa2ZT-71" value="N" style="resizable=0;html=1;whiteSpace=wrap;align=right;verticalAlign=bottom;" parent="fLhaeGa8DQ7M7dZYa2ZT-70" connectable="0" vertex="1">
          <mxGeometry x="1" relative="1" as="geometry">
            <mxPoint x="4" y="-7" as="offset" />
          </mxGeometry>
        </mxCell>
        <mxCell id="fLhaeGa8DQ7M7dZYa2ZT-96" value="Create" style="rhombus;whiteSpace=wrap;html=1;" parent="1" vertex="1">
          <mxGeometry x="372" y="460" width="80" height="80" as="geometry" />
        </mxCell>
        <mxCell id="fLhaeGa8DQ7M7dZYa2ZT-101" value="" style="shape=link;html=1;rounded=0;entryX=0.75;entryY=0;entryDx=0;entryDy=0;exitX=0.5;exitY=1;exitDx=0;exitDy=0;" parent="1" source="fLhaeGa8DQ7M7dZYa2ZT-96" target="fLhaeGa8DQ7M7dZYa2ZT-25" edge="1">
          <mxGeometry relative="1" as="geometry">
            <mxPoint x="420" y="562.72" as="sourcePoint" />
            <mxPoint x="90" y="865.72" as="targetPoint" />
          </mxGeometry>
        </mxCell>
        <mxCell id="fLhaeGa8DQ7M7dZYa2ZT-102" value="N" style="resizable=0;html=1;whiteSpace=wrap;align=right;verticalAlign=bottom;" parent="fLhaeGa8DQ7M7dZYa2ZT-101" connectable="0" vertex="1">
          <mxGeometry x="1" relative="1" as="geometry">
            <mxPoint x="11" y="-7" as="offset" />
          </mxGeometry>
        </mxCell>
        <mxCell id="fLhaeGa8DQ7M7dZYa2ZT-103" value="Comment" style="rounded=1;arcSize=10;whiteSpace=wrap;html=1;align=center;fontFamily=cascadia code;fontSize=14;" parent="1" vertex="1">
          <mxGeometry x="780" y="650" width="120" height="40" as="geometry" />
        </mxCell>
        <mxCell id="fLhaeGa8DQ7M7dZYa2ZT-104" value="Id" style="ellipse;whiteSpace=wrap;html=1;align=center;fontStyle=4;fontSize=14;" parent="1" vertex="1">
          <mxGeometry x="1020" y="570" width="100" height="40" as="geometry" />
        </mxCell>
        <mxCell id="fLhaeGa8DQ7M7dZYa2ZT-105" value="" style="endArrow=none;html=1;rounded=0;exitX=0;exitY=0.5;exitDx=0;exitDy=0;fontFamily=cascadia code;fontSize=14;entryX=1;entryY=0;entryDx=0;entryDy=0;" parent="1" source="fLhaeGa8DQ7M7dZYa2ZT-104" target="fLhaeGa8DQ7M7dZYa2ZT-103" edge="1">
          <mxGeometry relative="1" as="geometry">
            <mxPoint x="1060" y="680" as="sourcePoint" />
            <mxPoint x="900" y="530" as="targetPoint" />
            <Array as="points" />
          </mxGeometry>
        </mxCell>
        <mxCell id="fLhaeGa8DQ7M7dZYa2ZT-106" value="content" style="ellipse;whiteSpace=wrap;html=1;align=center;fontFamily=cascadia code;fontSize=14;" parent="1" vertex="1">
          <mxGeometry x="1020" y="620" width="100" height="40" as="geometry" />
        </mxCell>
        <mxCell id="fLhaeGa8DQ7M7dZYa2ZT-109" value="updatedAt" style="ellipse;whiteSpace=wrap;html=1;align=center;fontFamily=cascadia code;fontSize=14;" parent="1" vertex="1">
          <mxGeometry x="1020" y="670" width="100" height="40" as="geometry" />
        </mxCell>
        <mxCell id="fLhaeGa8DQ7M7dZYa2ZT-110" value="createdAt" style="ellipse;whiteSpace=wrap;html=1;align=center;fontFamily=cascadia code;fontSize=14;" parent="1" vertex="1">
          <mxGeometry x="1020" y="720" width="100" height="40" as="geometry" />
        </mxCell>
        <mxCell id="fLhaeGa8DQ7M7dZYa2ZT-118" value="" style="endArrow=none;html=1;rounded=0;exitX=1;exitY=0.25;exitDx=0;exitDy=0;fontFamily=cascadia code;fontSize=14;entryX=0;entryY=0.5;entryDx=0;entryDy=0;" parent="1" source="fLhaeGa8DQ7M7dZYa2ZT-103" target="fLhaeGa8DQ7M7dZYa2ZT-106" edge="1">
          <mxGeometry relative="1" as="geometry">
            <mxPoint x="972" y="540" as="sourcePoint" />
            <mxPoint x="1012" y="510" as="targetPoint" />
            <Array as="points" />
          </mxGeometry>
        </mxCell>
        <mxCell id="fLhaeGa8DQ7M7dZYa2ZT-119" value="" style="endArrow=none;html=1;rounded=0;fontFamily=cascadia code;fontSize=14;entryX=0;entryY=0.5;entryDx=0;entryDy=0;" parent="1" target="fLhaeGa8DQ7M7dZYa2ZT-109" edge="1">
          <mxGeometry relative="1" as="geometry">
            <mxPoint x="900" y="670" as="sourcePoint" />
            <mxPoint x="1065" y="534" as="targetPoint" />
            <Array as="points" />
          </mxGeometry>
        </mxCell>
        <mxCell id="fLhaeGa8DQ7M7dZYa2ZT-120" value="" style="endArrow=none;html=1;rounded=0;exitX=1;exitY=0.75;exitDx=0;exitDy=0;fontFamily=cascadia code;fontSize=14;entryX=0;entryY=0.5;entryDx=0;entryDy=0;" parent="1" source="fLhaeGa8DQ7M7dZYa2ZT-103" target="fLhaeGa8DQ7M7dZYa2ZT-110" edge="1">
          <mxGeometry relative="1" as="geometry">
            <mxPoint x="1032" y="560" as="sourcePoint" />
            <mxPoint x="1080" y="570" as="targetPoint" />
            <Array as="points" />
          </mxGeometry>
        </mxCell>
        <mxCell id="fLhaeGa8DQ7M7dZYa2ZT-121" value="Create" style="rhombus;whiteSpace=wrap;html=1;" parent="1" vertex="1">
          <mxGeometry x="730" y="460" width="80" height="80" as="geometry" />
        </mxCell>
        <mxCell id="fLhaeGa8DQ7M7dZYa2ZT-123" value="" style="shape=link;html=1;rounded=0;exitX=1;exitY=0.5;exitDx=0;exitDy=0;entryX=0.25;entryY=0;entryDx=0;entryDy=0;" parent="1" source="fLhaeGa8DQ7M7dZYa2ZT-121" target="fLhaeGa8DQ7M7dZYa2ZT-103" edge="1">
          <mxGeometry relative="1" as="geometry">
            <mxPoint x="590" y="880" as="sourcePoint" />
            <mxPoint x="860" y="390" as="targetPoint" />
          </mxGeometry>
        </mxCell>
        <mxCell id="fLhaeGa8DQ7M7dZYa2ZT-124" value="N" style="resizable=0;html=1;whiteSpace=wrap;align=right;verticalAlign=bottom;" parent="fLhaeGa8DQ7M7dZYa2ZT-123" connectable="0" vertex="1">
          <mxGeometry x="1" relative="1" as="geometry">
            <mxPoint x="6" y="-7" as="offset" />
          </mxGeometry>
        </mxCell>
        <mxCell id="fLhaeGa8DQ7M7dZYa2ZT-131" value="Has" style="rhombus;whiteSpace=wrap;html=1;direction=east;" parent="1" vertex="1">
          <mxGeometry x="640" y="630" width="80" height="80" as="geometry" />
        </mxCell>
        <mxCell id="fLhaeGa8DQ7M7dZYa2ZT-133" value="" style="shape=link;html=1;rounded=0;exitX=1;exitY=0.5;exitDx=0;exitDy=0;entryX=0;entryY=0.5;entryDx=0;entryDy=0;" parent="1" source="fLhaeGa8DQ7M7dZYa2ZT-131" target="fLhaeGa8DQ7M7dZYa2ZT-103" edge="1">
          <mxGeometry relative="1" as="geometry">
            <mxPoint x="808" y="650" as="sourcePoint" />
            <mxPoint x="660" y="490" as="targetPoint" />
          </mxGeometry>
        </mxCell>
        <mxCell id="fLhaeGa8DQ7M7dZYa2ZT-134" value="N" style="resizable=0;html=1;whiteSpace=wrap;align=right;verticalAlign=bottom;" parent="fLhaeGa8DQ7M7dZYa2ZT-133" connectable="0" vertex="1">
          <mxGeometry x="1" relative="1" as="geometry">
            <mxPoint x="-10" y="10" as="offset" />
          </mxGeometry>
        </mxCell>
        <mxCell id="KDxauUP3_yt1p3gHTJt_-1" value="Subscribe&amp;nbsp;&lt;div&gt;or&lt;/div&gt;&lt;div&gt;Subscribed&lt;/div&gt;" style="shape=rhombus;perimeter=rhombusPerimeter;whiteSpace=wrap;html=1;align=center;" parent="1" vertex="1">
          <mxGeometry x="410" y="355" width="120" height="90" as="geometry" />
        </mxCell>
        <mxCell id="KDxauUP3_yt1p3gHTJt_-2" value="isVerified" style="ellipse;whiteSpace=wrap;html=1;align=center;fontFamily=cascadia code;fontSize=14;" parent="1" vertex="1">
          <mxGeometry x="458" y="40" width="100" height="40" as="geometry" />
        </mxCell>
        <mxCell id="KDxauUP3_yt1p3gHTJt_-3" value="" style="endArrow=none;html=1;rounded=0;entryX=0;entryY=0.5;entryDx=0;entryDy=0;fontFamily=cascadia code;fontSize=14;exitX=1;exitY=0;exitDx=0;exitDy=0;" parent="1" source="zv86cnZ0isYPRK_yYeSK-1" target="KDxauUP3_yt1p3gHTJt_-2" edge="1">
          <mxGeometry relative="1" as="geometry">
            <mxPoint x="388" y="180" as="sourcePoint" />
            <mxPoint x="468" y="220" as="targetPoint" />
            <Array as="points" />
          </mxGeometry>
        </mxCell>
        <mxCell id="KDxauUP3_yt1p3gHTJt_-4" value="verificationToken" style="ellipse;whiteSpace=wrap;html=1;align=center;fontFamily=cascadia code;fontSize=14;" parent="1" vertex="1">
          <mxGeometry x="458" y="90" width="100" height="40" as="geometry" />
        </mxCell>
        <mxCell id="KDxauUP3_yt1p3gHTJt_-5" value="resetPasswordToken" style="ellipse;whiteSpace=wrap;html=1;align=center;fontFamily=cascadia code;fontSize=14;" parent="1" vertex="1">
          <mxGeometry x="458" y="140" width="100" height="40" as="geometry" />
        </mxCell>
        <mxCell id="KDxauUP3_yt1p3gHTJt_-6" value="" style="endArrow=none;html=1;rounded=0;entryX=0;entryY=0.5;entryDx=0;entryDy=0;fontFamily=cascadia code;fontSize=14;exitX=1;exitY=0.25;exitDx=0;exitDy=0;" parent="1" source="zv86cnZ0isYPRK_yYeSK-1" target="KDxauUP3_yt1p3gHTJt_-4" edge="1">
          <mxGeometry relative="1" as="geometry">
            <mxPoint x="388" y="150" as="sourcePoint" />
            <mxPoint x="468" y="70" as="targetPoint" />
            <Array as="points" />
          </mxGeometry>
        </mxCell>
        <mxCell id="KDxauUP3_yt1p3gHTJt_-7" value="" style="endArrow=none;html=1;rounded=0;entryX=0;entryY=0.5;entryDx=0;entryDy=0;fontFamily=cascadia code;fontSize=14;exitX=1;exitY=0.5;exitDx=0;exitDy=0;" parent="1" source="zv86cnZ0isYPRK_yYeSK-1" target="KDxauUP3_yt1p3gHTJt_-5" edge="1">
          <mxGeometry relative="1" as="geometry">
            <mxPoint x="398" y="160" as="sourcePoint" />
            <mxPoint x="478" y="80" as="targetPoint" />
            <Array as="points" />
          </mxGeometry>
        </mxCell>
        <mxCell id="KDxauUP3_yt1p3gHTJt_-8" value="desc" style="ellipse;whiteSpace=wrap;html=1;align=center;fontFamily=cascadia code;fontSize=14;" parent="1" vertex="1">
          <mxGeometry x="80" y="680" width="100" height="40" as="geometry" />
        </mxCell>
        <mxCell id="KDxauUP3_yt1p3gHTJt_-9" value="thumbnailUrl" style="ellipse;whiteSpace=wrap;html=1;align=center;fontFamily=cascadia code;fontSize=14;" parent="1" vertex="1">
          <mxGeometry x="80" y="730" width="100" height="40" as="geometry" />
        </mxCell>
        <mxCell id="KDxauUP3_yt1p3gHTJt_-11" value="videoUrl" style="ellipse;whiteSpace=wrap;html=1;align=center;fontFamily=cascadia code;fontSize=14;" parent="1" vertex="1">
          <mxGeometry x="270" y="730" width="100" height="40" as="geometry" />
        </mxCell>
        <mxCell id="KDxauUP3_yt1p3gHTJt_-12" value="viewsNumber" style="ellipse;whiteSpace=wrap;html=1;align=center;fontFamily=cascadia code;fontSize=14;" parent="1" vertex="1">
          <mxGeometry x="460" y="620" width="100" height="40" as="geometry" />
        </mxCell>
        <mxCell id="KDxauUP3_yt1p3gHTJt_-13" value="likesNumber" style="ellipse;whiteSpace=wrap;html=1;align=center;fontFamily=cascadia code;fontSize=14;" parent="1" vertex="1">
          <mxGeometry x="460" y="570" width="100" height="40" as="geometry" />
        </mxCell>
        <mxCell id="KDxauUP3_yt1p3gHTJt_-15" value="" style="endArrow=none;html=1;rounded=0;exitX=1;exitY=0.5;exitDx=0;exitDy=0;fontFamily=cascadia code;fontSize=14;entryX=0;entryY=0.5;entryDx=0;entryDy=0;" parent="1" source="KDxauUP3_yt1p3gHTJt_-8" target="fLhaeGa8DQ7M7dZYa2ZT-25" edge="1">
          <mxGeometry relative="1" as="geometry">
            <mxPoint x="190" y="650" as="sourcePoint" />
            <mxPoint x="270" y="670" as="targetPoint" />
            <Array as="points" />
          </mxGeometry>
        </mxCell>
        <mxCell id="KDxauUP3_yt1p3gHTJt_-16" value="" style="endArrow=none;html=1;rounded=0;exitX=1;exitY=0.5;exitDx=0;exitDy=0;fontFamily=cascadia code;fontSize=14;entryX=0;entryY=0.75;entryDx=0;entryDy=0;" parent="1" source="KDxauUP3_yt1p3gHTJt_-9" target="fLhaeGa8DQ7M7dZYa2ZT-25" edge="1">
          <mxGeometry relative="1" as="geometry">
            <mxPoint x="190" y="700" as="sourcePoint" />
            <mxPoint x="272" y="680" as="targetPoint" />
            <Array as="points" />
          </mxGeometry>
        </mxCell>
        <mxCell id="KDxauUP3_yt1p3gHTJt_-17" value="" style="endArrow=none;html=1;rounded=0;entryX=0;entryY=0.5;entryDx=0;entryDy=0;exitX=1;exitY=0.5;exitDx=0;exitDy=0;fontFamily=cascadia code;fontSize=14;" parent="1" source="fLhaeGa8DQ7M7dZYa2ZT-25" target="fLhaeGa8DQ7M7dZYa2ZT-43" edge="1">
          <mxGeometry relative="1" as="geometry">
            <mxPoint x="392" y="690" as="sourcePoint" />
            <mxPoint x="470" y="750" as="targetPoint" />
            <Array as="points" />
          </mxGeometry>
        </mxCell>
        <mxCell id="KDxauUP3_yt1p3gHTJt_-18" value="" style="endArrow=none;html=1;rounded=0;entryX=0;entryY=0.5;entryDx=0;entryDy=0;exitX=1;exitY=0.25;exitDx=0;exitDy=0;fontFamily=cascadia code;fontSize=14;" parent="1" source="fLhaeGa8DQ7M7dZYa2ZT-25" target="KDxauUP3_yt1p3gHTJt_-12" edge="1">
          <mxGeometry relative="1" as="geometry">
            <mxPoint x="402" y="700" as="sourcePoint" />
            <mxPoint x="480" y="760" as="targetPoint" />
            <Array as="points" />
          </mxGeometry>
        </mxCell>
        <mxCell id="KDxauUP3_yt1p3gHTJt_-19" value="" style="endArrow=none;html=1;rounded=0;entryX=0;entryY=0.5;entryDx=0;entryDy=0;exitX=1;exitY=0;exitDx=0;exitDy=0;fontFamily=cascadia code;fontSize=14;" parent="1" source="fLhaeGa8DQ7M7dZYa2ZT-25" target="KDxauUP3_yt1p3gHTJt_-13" edge="1">
          <mxGeometry relative="1" as="geometry">
            <mxPoint x="392" y="670" as="sourcePoint" />
            <mxPoint x="470" y="650" as="targetPoint" />
            <Array as="points" />
          </mxGeometry>
        </mxCell>
        <mxCell id="KDxauUP3_yt1p3gHTJt_-21" value="" style="endArrow=none;html=1;rounded=0;exitX=0.099;exitY=1.019;exitDx=0;exitDy=0;entryX=0.5;entryY=0;entryDx=0;entryDy=0;exitPerimeter=0;" parent="1" source="zv86cnZ0isYPRK_yYeSK-1" target="fLhaeGa8DQ7M7dZYa2ZT-54" edge="1">
          <mxGeometry relative="1" as="geometry">
            <mxPoint x="182" y="540" as="sourcePoint" />
            <mxPoint x="242" y="650" as="targetPoint" />
          </mxGeometry>
        </mxCell>
        <mxCell id="KDxauUP3_yt1p3gHTJt_-24" value="" style="endArrow=none;html=1;rounded=0;exitX=0.25;exitY=1;exitDx=0;exitDy=0;entryX=0.5;entryY=0;entryDx=0;entryDy=0;" parent="1" source="zv86cnZ0isYPRK_yYeSK-1" target="fLhaeGa8DQ7M7dZYa2ZT-55" edge="1">
          <mxGeometry relative="1" as="geometry">
            <mxPoint x="561" y="191" as="sourcePoint" />
            <mxPoint x="182" y="460" as="targetPoint" />
          </mxGeometry>
        </mxCell>
        <mxCell id="KDxauUP3_yt1p3gHTJt_-26" value="" style="endArrow=none;html=1;rounded=0;exitX=0.374;exitY=1.019;exitDx=0;exitDy=0;entryX=0.5;entryY=0;entryDx=0;entryDy=0;exitPerimeter=0;" parent="1" source="zv86cnZ0isYPRK_yYeSK-1" target="fLhaeGa8DQ7M7dZYa2ZT-96" edge="1">
          <mxGeometry relative="1" as="geometry">
            <mxPoint x="579" y="190" as="sourcePoint" />
            <mxPoint x="272" y="460" as="targetPoint" />
          </mxGeometry>
        </mxCell>
        <mxCell id="KDxauUP3_yt1p3gHTJt_-27" value="&lt;span style=&quot;color: rgba(0, 0, 0, 0); font-family: monospace; font-size: 0px; text-align: start;&quot;&gt;%3CmxGraphModel%3E%3Croot%3E%3CmxCell%20id%3D%220%22%2F%3E%3CmxCell%20id%3D%221%22%20parent%3D%220%22%2F%3E%3CmxCell%20id%3D%222%22%20value%3D%22%22%20style%3D%22endArrow%3Dnone%3Bhtml%3D1%3Brounded%3D0%3BexitX%3D0.099%3BexitY%3D1.019%3BexitDx%3D0%3BexitDy%3D0%3BentryX%3D0.5%3BentryY%3D0%3BentryDx%3D0%3BentryDy%3D0%3BexitPerimeter%3D0%3B%22%20edge%3D%221%22%20parent%3D%221%22%3E%3CmxGeometry%20relative%3D%221%22%20as%3D%22geometry%22%3E%3CmxPoint%20x%3D%22551%22%20y%3D%22181%22%20as%3D%22sourcePoint%22%2F%3E%3CmxPoint%20x%3D%22172%22%20y%3D%22450%22%20as%3D%22targetPoint%22%2F%3E%3C%2FmxGeometry%3E%3C%2FmxCell%3E%3C%2Froot%3E%3C%2FmxGraphModel%3E1&lt;/span&gt;" style="resizable=0;html=1;whiteSpace=wrap;align=right;verticalAlign=bottom;" parent="1" connectable="0" vertex="1">
          <mxGeometry x="327.9990329209661" y="664.0015603551051" as="geometry">
            <mxPoint x="307" y="-448" as="offset" />
          </mxGeometry>
        </mxCell>
        <mxCell id="KDxauUP3_yt1p3gHTJt_-28" value="&lt;span style=&quot;color: rgba(0, 0, 0, 0); font-family: monospace; font-size: 0px; text-align: start;&quot;&gt;%3CmxGraphModel%3E%3Croot%3E%3CmxCell%20id%3D%220%22%2F%3E%3CmxCell%20id%3D%221%22%20parent%3D%220%22%2F%3E%3CmxCell%20id%3D%222%22%20value%3D%22%22%20style%3D%22endArrow%3Dnone%3Bhtml%3D1%3Brounded%3D0%3BexitX%3D0.099%3BexitY%3D1.019%3BexitDx%3D0%3BexitDy%3D0%3BentryX%3D0.5%3BentryY%3D0%3BentryDx%3D0%3BentryDy%3D0%3BexitPerimeter%3D0%3B%22%20edge%3D%221%22%20parent%3D%221%22%3E%3CmxGeometry%20relative%3D%221%22%20as%3D%22geometry%22%3E%3CmxPoint%20x%3D%22551%22%20y%3D%22181%22%20as%3D%22sourcePoint%22%2F%3E%3CmxPoint%20x%3D%22172%22%20y%3D%22450%22%20as%3D%22targetPoint%22%2F%3E%3C%2FmxGeometry%3E%3C%2FmxCell%3E%3C%2Froot%3E%3C%2FmxGraphModel%3E&lt;/span&gt;" style="resizable=0;html=1;whiteSpace=wrap;align=right;verticalAlign=bottom;" parent="1" connectable="0" vertex="1">
          <mxGeometry x="319.9990329209661" y="670.0015603551051" as="geometry">
            <mxPoint x="307" y="-448" as="offset" />
          </mxGeometry>
        </mxCell>
        <mxCell id="KDxauUP3_yt1p3gHTJt_-29" value="&lt;span style=&quot;color: rgba(0, 0, 0, 0); font-family: monospace; font-size: 0px; text-align: start;&quot;&gt;%3CmxGraphModel%3E%3Croot%3E%3CmxCell%20id%3D%220%22%2F%3E%3CmxCell%20id%3D%221%22%20parent%3D%220%22%2F%3E%3CmxCell%20id%3D%222%22%20value%3D%22%22%20style%3D%22endArrow%3Dnone%3Bhtml%3D1%3Brounded%3D0%3BexitX%3D0.099%3BexitY%3D1.019%3BexitDx%3D0%3BexitDy%3D0%3BentryX%3D0.5%3BentryY%3D0%3BentryDx%3D0%3BentryDy%3D0%3BexitPerimeter%3D0%3B%22%20edge%3D%221%22%20parent%3D%221%22%3E%3CmxGeometry%20relative%3D%221%22%20as%3D%22geometry%22%3E%3CmxPoint%20x%3D%22551%22%20y%3D%22181%22%20as%3D%22sourcePoint%22%2F%3E%3CmxPoint%20x%3D%22172%22%20y%3D%22450%22%20as%3D%22targetPoint%22%2F%3E%3C%2FmxGeometry%3E%3C%2FmxCell%3E%3C%2Froot%3E%3C%2FmxGraphModel%3E&lt;/span&gt;1" style="resizable=0;html=1;whiteSpace=wrap;align=right;verticalAlign=bottom;" parent="1" connectable="0" vertex="1">
          <mxGeometry x="215.9990329209661" y="666.0015603551051" as="geometry">
            <mxPoint x="307" y="-448" as="offset" />
          </mxGeometry>
        </mxCell>
        <mxCell id="KDxauUP3_yt1p3gHTJt_-32" value="" style="endArrow=none;html=1;rounded=0;exitX=0.615;exitY=0.994;exitDx=0;exitDy=0;entryX=0;entryY=0.5;entryDx=0;entryDy=0;exitPerimeter=0;" parent="1" source="zv86cnZ0isYPRK_yYeSK-1" target="fLhaeGa8DQ7M7dZYa2ZT-121" edge="1">
          <mxGeometry relative="1" as="geometry">
            <mxPoint x="594" y="191" as="sourcePoint" />
            <mxPoint x="422" y="470" as="targetPoint" />
          </mxGeometry>
        </mxCell>
        <mxCell id="KDxauUP3_yt1p3gHTJt_-33" value="&lt;span style=&quot;color: rgba(0, 0, 0, 0); font-family: monospace; font-size: 0px; text-align: start;&quot;&gt;%3CmxGraphModel%3E%3Croot%3E%3CmxCell%20id%3D%220%22%2F%3E%3CmxCell%20id%3D%221%22%20parent%3D%220%22%2F%3E%3CmxCell%20id%3D%222%22%20value%3D%22%22%20style%3D%22endArrow%3Dnone%3Bhtml%3D1%3Brounded%3D0%3BexitX%3D0.099%3BexitY%3D1.019%3BexitDx%3D0%3BexitDy%3D0%3BentryX%3D0.5%3BentryY%3D0%3BentryDx%3D0%3BentryDy%3D0%3BexitPerimeter%3D0%3B%22%20edge%3D%221%22%20parent%3D%221%22%3E%3CmxGeometry%20relative%3D%221%22%20as%3D%22geometry%22%3E%3CmxPoint%20x%3D%22551%22%20y%3D%22181%22%20as%3D%22sourcePoint%22%2F%3E%3CmxPoint%20x%3D%22172%22%20y%3D%22450%22%20as%3D%22targetPoint%22%2F%3E%3C%2FmxGeometry%3E%3C%2FmxCell%3E%3C%2Froot%3E%3C%2FmxGraphModel%3E&lt;/span&gt;1" style="resizable=0;html=1;whiteSpace=wrap;align=right;verticalAlign=bottom;" parent="1" connectable="0" vertex="1">
          <mxGeometry x="3.9990329209661013" y="650.0015603551051" as="geometry">
            <mxPoint x="307" y="-448" as="offset" />
          </mxGeometry>
        </mxCell>
        <mxCell id="KDxauUP3_yt1p3gHTJt_-34" value="" style="endArrow=none;html=1;rounded=0;entryX=0;entryY=0.5;entryDx=0;entryDy=0;exitX=1;exitY=0.5;exitDx=0;exitDy=0;" parent="1" source="fLhaeGa8DQ7M7dZYa2ZT-25" target="fLhaeGa8DQ7M7dZYa2ZT-131" edge="1">
          <mxGeometry relative="1" as="geometry">
            <mxPoint x="610" y="502" as="sourcePoint" />
            <mxPoint x="879" y="462" as="targetPoint" />
          </mxGeometry>
        </mxCell>
        <mxCell id="KDxauUP3_yt1p3gHTJt_-40" value="1" style="resizable=0;html=1;whiteSpace=wrap;align=right;verticalAlign=bottom;" parent="1" connectable="0" vertex="1">
          <mxGeometry x="406" y="678" as="geometry" />
        </mxCell>
        <mxCell id="QCiCj7_f_cRRoYtTdOOV-14" value="Notification" style="rounded=1;arcSize=10;whiteSpace=wrap;html=1;align=center;fontFamily=cascadia code;fontSize=14;" vertex="1" parent="1">
          <mxGeometry x="780" y="140" width="120" height="40" as="geometry" />
        </mxCell>
        <mxCell id="QCiCj7_f_cRRoYtTdOOV-15" value="&lt;font face=&quot;cascadia code&quot;&gt;Id&lt;/font&gt;" style="ellipse;whiteSpace=wrap;html=1;align=center;fontStyle=4;fontSize=14;" vertex="1" parent="1">
          <mxGeometry x="1020" y="60" width="100" height="40" as="geometry" />
        </mxCell>
        <mxCell id="QCiCj7_f_cRRoYtTdOOV-16" value="" style="endArrow=none;html=1;rounded=0;exitX=0;exitY=0.5;exitDx=0;exitDy=0;fontFamily=cascadia code;fontSize=14;entryX=1;entryY=0;entryDx=0;entryDy=0;" edge="1" parent="1" source="QCiCj7_f_cRRoYtTdOOV-15" target="QCiCj7_f_cRRoYtTdOOV-14">
          <mxGeometry relative="1" as="geometry">
            <mxPoint x="1060" y="170" as="sourcePoint" />
            <mxPoint x="900" y="20" as="targetPoint" />
            <Array as="points" />
          </mxGeometry>
        </mxCell>
        <mxCell id="QCiCj7_f_cRRoYtTdOOV-17" value="type" style="ellipse;whiteSpace=wrap;html=1;align=center;fontFamily=cascadia code;fontSize=14;" vertex="1" parent="1">
          <mxGeometry x="1020" y="110" width="100" height="40" as="geometry" />
        </mxCell>
        <mxCell id="QCiCj7_f_cRRoYtTdOOV-18" value="isRead" style="ellipse;whiteSpace=wrap;html=1;align=center;fontFamily=cascadia code;fontSize=14;" vertex="1" parent="1">
          <mxGeometry x="1020" y="160" width="100" height="40" as="geometry" />
        </mxCell>
        <mxCell id="QCiCj7_f_cRRoYtTdOOV-19" value="updatedAt" style="ellipse;whiteSpace=wrap;html=1;align=center;fontFamily=cascadia code;fontSize=14;" vertex="1" parent="1">
          <mxGeometry x="1020" y="210" width="100" height="40" as="geometry" />
        </mxCell>
        <mxCell id="QCiCj7_f_cRRoYtTdOOV-20" value="" style="endArrow=none;html=1;rounded=0;exitX=1;exitY=0.25;exitDx=0;exitDy=0;fontFamily=cascadia code;fontSize=14;entryX=0;entryY=0.5;entryDx=0;entryDy=0;" edge="1" parent="1" source="QCiCj7_f_cRRoYtTdOOV-14" target="QCiCj7_f_cRRoYtTdOOV-17">
          <mxGeometry relative="1" as="geometry">
            <mxPoint x="972" y="30" as="sourcePoint" />
            <mxPoint x="1012" as="targetPoint" />
            <Array as="points" />
          </mxGeometry>
        </mxCell>
        <mxCell id="QCiCj7_f_cRRoYtTdOOV-21" value="" style="endArrow=none;html=1;rounded=0;fontFamily=cascadia code;fontSize=14;entryX=0;entryY=0.5;entryDx=0;entryDy=0;" edge="1" parent="1" target="QCiCj7_f_cRRoYtTdOOV-18">
          <mxGeometry relative="1" as="geometry">
            <mxPoint x="900" y="160" as="sourcePoint" />
            <mxPoint x="1065" y="24" as="targetPoint" />
            <Array as="points" />
          </mxGeometry>
        </mxCell>
        <mxCell id="QCiCj7_f_cRRoYtTdOOV-22" value="" style="endArrow=none;html=1;rounded=0;exitX=1;exitY=0.75;exitDx=0;exitDy=0;fontFamily=cascadia code;fontSize=14;entryX=0;entryY=0.5;entryDx=0;entryDy=0;" edge="1" parent="1" source="QCiCj7_f_cRRoYtTdOOV-14" target="QCiCj7_f_cRRoYtTdOOV-19">
          <mxGeometry relative="1" as="geometry">
            <mxPoint x="1032" y="50" as="sourcePoint" />
            <mxPoint x="1080" y="60" as="targetPoint" />
            <Array as="points" />
          </mxGeometry>
        </mxCell>
        <mxCell id="QCiCj7_f_cRRoYtTdOOV-23" value="Send" style="rhombus;whiteSpace=wrap;html=1;" vertex="1" parent="1">
          <mxGeometry x="660" y="70" width="80" height="80" as="geometry" />
        </mxCell>
        <mxCell id="QCiCj7_f_cRRoYtTdOOV-28" value="Receive" style="rhombus;whiteSpace=wrap;html=1;" vertex="1" parent="1">
          <mxGeometry x="660" y="170" width="80" height="80" as="geometry" />
        </mxCell>
        <mxCell id="QCiCj7_f_cRRoYtTdOOV-31" value="1" style="resizable=0;html=1;whiteSpace=wrap;align=right;verticalAlign=bottom;" connectable="0" vertex="1" parent="1">
          <mxGeometry x="345.99828487423247" y="201.00029562420352" as="geometry">
            <mxPoint x="6" y="-2" as="offset" />
          </mxGeometry>
        </mxCell>
        <mxCell id="QCiCj7_f_cRRoYtTdOOV-32" value="Has" style="rhombus;whiteSpace=wrap;html=1;" vertex="1" parent="1">
          <mxGeometry x="830" y="460" width="80" height="80" as="geometry" />
        </mxCell>
        <mxCell id="QCiCj7_f_cRRoYtTdOOV-33" value="" style="endArrow=none;html=1;rounded=0;exitX=0.75;exitY=1;exitDx=0;exitDy=0;entryX=0.5;entryY=0;entryDx=0;entryDy=0;" edge="1" parent="1" source="QCiCj7_f_cRRoYtTdOOV-14" target="QCiCj7_f_cRRoYtTdOOV-32">
          <mxGeometry relative="1" as="geometry">
            <mxPoint x="342" y="190" as="sourcePoint" />
            <mxPoint x="740" y="510" as="targetPoint" />
          </mxGeometry>
        </mxCell>
        <mxCell id="QCiCj7_f_cRRoYtTdOOV-35" value="" style="shape=link;html=1;rounded=0;exitX=0.5;exitY=1;exitDx=0;exitDy=0;entryX=0.75;entryY=0;entryDx=0;entryDy=0;" edge="1" parent="1" source="QCiCj7_f_cRRoYtTdOOV-32" target="fLhaeGa8DQ7M7dZYa2ZT-103">
          <mxGeometry relative="1" as="geometry">
            <mxPoint x="820" y="510" as="sourcePoint" />
            <mxPoint x="820" y="660" as="targetPoint" />
          </mxGeometry>
        </mxCell>
        <mxCell id="QCiCj7_f_cRRoYtTdOOV-36" value="1" style="resizable=0;html=1;whiteSpace=wrap;align=right;verticalAlign=bottom;" connectable="0" vertex="1" parent="QCiCj7_f_cRRoYtTdOOV-35">
          <mxGeometry x="1" relative="1" as="geometry">
            <mxPoint x="11" y="-7" as="offset" />
          </mxGeometry>
        </mxCell>
        <mxCell id="QCiCj7_f_cRRoYtTdOOV-37" value="1" style="resizable=0;html=1;whiteSpace=wrap;align=right;verticalAlign=bottom;" connectable="0" vertex="1" parent="1">
          <mxGeometry x="880" y="200.00478260869573" as="geometry" />
        </mxCell>
        <mxCell id="QCiCj7_f_cRRoYtTdOOV-38" value="" style="shape=link;html=1;rounded=0;exitX=1;exitY=0.5;exitDx=0;exitDy=0;entryX=0;entryY=0;entryDx=0;entryDy=0;" edge="1" parent="1" source="QCiCj7_f_cRRoYtTdOOV-23" target="QCiCj7_f_cRRoYtTdOOV-14">
          <mxGeometry relative="1" as="geometry">
            <mxPoint x="790" y="290" as="sourcePoint" />
            <mxPoint x="790" y="440" as="targetPoint" />
          </mxGeometry>
        </mxCell>
        <mxCell id="QCiCj7_f_cRRoYtTdOOV-39" value="N" style="resizable=0;html=1;whiteSpace=wrap;align=right;verticalAlign=bottom;" connectable="0" vertex="1" parent="QCiCj7_f_cRRoYtTdOOV-38">
          <mxGeometry x="1" relative="1" as="geometry">
            <mxPoint x="6" y="-5" as="offset" />
          </mxGeometry>
        </mxCell>
        <mxCell id="QCiCj7_f_cRRoYtTdOOV-40" value="" style="shape=link;html=1;rounded=0;exitX=1;exitY=0.5;exitDx=0;exitDy=0;entryX=0;entryY=1;entryDx=0;entryDy=0;" edge="1" parent="1" source="QCiCj7_f_cRRoYtTdOOV-28" target="QCiCj7_f_cRRoYtTdOOV-14">
          <mxGeometry relative="1" as="geometry">
            <mxPoint x="750" y="120" as="sourcePoint" />
            <mxPoint x="790" y="150" as="targetPoint" />
          </mxGeometry>
        </mxCell>
        <mxCell id="QCiCj7_f_cRRoYtTdOOV-41" value="N" style="resizable=0;html=1;whiteSpace=wrap;align=right;verticalAlign=bottom;" connectable="0" vertex="1" parent="QCiCj7_f_cRRoYtTdOOV-40">
          <mxGeometry x="1" relative="1" as="geometry">
            <mxPoint x="10" y="20" as="offset" />
          </mxGeometry>
        </mxCell>
        <mxCell id="QCiCj7_f_cRRoYtTdOOV-42" value="" style="endArrow=none;html=1;rounded=0;exitX=0;exitY=0.5;exitDx=0;exitDy=0;entryX=1;entryY=0.25;entryDx=0;entryDy=0;" edge="1" parent="1" source="QCiCj7_f_cRRoYtTdOOV-23" target="zv86cnZ0isYPRK_yYeSK-1">
          <mxGeometry relative="1" as="geometry">
            <mxPoint x="880" y="190" as="sourcePoint" />
            <mxPoint x="880" y="470" as="targetPoint" />
          </mxGeometry>
        </mxCell>
        <mxCell id="QCiCj7_f_cRRoYtTdOOV-43" value="" style="endArrow=none;html=1;rounded=0;exitX=0;exitY=0.5;exitDx=0;exitDy=0;" edge="1" parent="1" source="QCiCj7_f_cRRoYtTdOOV-28">
          <mxGeometry relative="1" as="geometry">
            <mxPoint x="670" y="120" as="sourcePoint" />
            <mxPoint x="380" y="170" as="targetPoint" />
          </mxGeometry>
        </mxCell>
        <mxCell id="QCiCj7_f_cRRoYtTdOOV-44" value="1" style="resizable=0;html=1;whiteSpace=wrap;align=right;verticalAlign=bottom;" connectable="0" vertex="1" parent="1">
          <mxGeometry x="400.9978260869565" y="158.00086956521739" as="geometry" />
        </mxCell>
        <mxCell id="QCiCj7_f_cRRoYtTdOOV-45" value="1" style="resizable=0;html=1;whiteSpace=wrap;align=right;verticalAlign=bottom;" connectable="0" vertex="1" parent="1">
          <mxGeometry x="399.9978260869565" y="164.00086956521739" as="geometry">
            <mxPoint x="2" y="16" as="offset" />
          </mxGeometry>
        </mxCell>
        <mxCell id="QCiCj7_f_cRRoYtTdOOV-46" value="createdAt" style="ellipse;whiteSpace=wrap;html=1;align=center;fontFamily=cascadia code;fontSize=14;" vertex="1" parent="1">
          <mxGeometry x="1020" y="260" width="100" height="40" as="geometry" />
        </mxCell>
        <mxCell id="QCiCj7_f_cRRoYtTdOOV-49" value="" style="endArrow=none;html=1;rounded=0;exitX=1;exitY=1;exitDx=0;exitDy=0;fontFamily=cascadia code;fontSize=14;entryX=0;entryY=0.5;entryDx=0;entryDy=0;" edge="1" parent="1" source="QCiCj7_f_cRRoYtTdOOV-14" target="QCiCj7_f_cRRoYtTdOOV-46">
          <mxGeometry relative="1" as="geometry">
            <mxPoint x="910" y="180" as="sourcePoint" />
            <mxPoint x="1030" y="240" as="targetPoint" />
            <Array as="points" />
          </mxGeometry>
        </mxCell>
        <mxCell id="QCiCj7_f_cRRoYtTdOOV-50" value="N" style="resizable=0;html=1;whiteSpace=wrap;align=right;verticalAlign=bottom;" connectable="0" vertex="1" parent="1">
          <mxGeometry x="409.99735958994034" y="410.44803380203075" as="geometry">
            <mxPoint x="-139" y="-203" as="offset" />
          </mxGeometry>
        </mxCell>
        <mxCell id="QCiCj7_f_cRRoYtTdOOV-51" value="N" style="resizable=0;html=1;whiteSpace=wrap;align=right;verticalAlign=bottom;" connectable="0" vertex="1" parent="1">
          <mxGeometry x="429.99735958994034" y="410.44803380203075" as="geometry">
            <mxPoint x="-139" y="-203" as="offset" />
          </mxGeometry>
        </mxCell>
      </root>
    </mxGraphModel>
  </diagram>
</mxfile>
